# xmcd database file
#
# Track frame offsets:
# 150
# 4938
# 20250
# 31113
# 57319
# 71006
# 101669
# 115027
# 139732
# 157916
# 184273
# 187909
# 207983
# 234234
# 246100
# 266927
# 280471
#
# Disc length: 4149 seconds
#
# Revision: 3
# Processed by: cddbd v1.4PL0 Copyright (c) Steve Scherf et al.
# Submitted via: CD-Runner 2004.01
#
DISCID=ea103311
DTITLE=Ray Charles - Live at the Montreux Jazz Festival
DYEAR=1997
DGENRE=Jazz
TTITLE0=Ray Charles Opener
TTITLE1=I'll Be Home
TTITLE2=Busted
TTITLE3=Georgia On My Mind
TTITLE4=Mississippi Mud
TTITLE5=Just For A Thrill
TTITLE6=You Made Me Love You
TTITLE7=Angelina
TTITLE8=Scotia Blues (Blues For Big Scotia)
TTITLE9=Song For You
TTITLE10=Do It To Me Slow (Rayettes intro)
TTITLE11=Watch Them Dogs
TTITLE12=Shadows Of My Mind
TTITLE13=Smack Dab In The Middle
TTITLE14=I Can't Stop Loving You
TTITLE15=People Will Say We're In Love
TTITLE16=What'd I Say
EXTD=
EXTT0=
EXTT1=
EXTT2=
EXTT3=
EXTT4=
EXTT5=
EXTT6=
EXTT7=
EXTT8=
EXTT9=
EXTT10=
EXTT11=
EXTT12=
EXTT13=
EXTT14=
EXTT15=
EXTT16=
PLAYORDER=
